<svg width="245" height="77" viewBox="0 0 245 77" fill="none" xmlns="http://www.w3.org/2000/svg">
<path d="M217.13 58.6442C216.476 64.5434 211.575 69.0146 205.724 69.0558H156.561C150.703 69.0295 145.79 64.551 145.136 58.6481C144.056 48.8533 142.975 40.1841 141.902 31.5445C141.36 27.2082 140.822 22.879 140.287 18.4188C139.786 14.2581 142.755 10.4338 146.9 9.88781C158.261 8.40011 169.694 7.65601 181.133 7.65601C192.569 7.65601 204.008 8.40011 215.362 9.88781C219.511 10.4338 222.48 14.2581 221.975 18.4188C221.444 22.8412 220.909 27.1369 220.375 31.4397C219.295 40.1171 218.215 48.816 217.13 58.6442Z" fill="#53DCFF"/>
<path d="M174.64 7.76176C166.293 7.96753 157.957 8.57429 149.655 9.57295L208.68 68.5979C213.146 67.359 216.591 63.5088 217.13 58.6443C217.415 56.0579 217.701 53.5567 217.985 51.1067L174.64 7.76176Z" fill="#B3F4FF"/>
<path d="M19.1406 26.9464L2.40645 20.2529C0.953203 19.6715 0 18.2637 0 16.6985V11.6339C0 9.51983 1.71404 7.80579 3.82812 7.80579H22.9688L19.1406 26.9464Z" fill="#9F6459"/>
<path d="M225.859 26.9464L242.594 20.2529C244.047 19.6715 245 18.2637 245 16.6985V11.6339C245 9.51983 243.286 7.80579 241.172 7.80579H222.031L225.859 26.9464Z" fill="#9F6459"/>
<path d="M99.8676 58.6442C99.2135 64.5434 94.3126 69.0146 88.4617 69.0558H39.2981C33.4401 69.0295 28.5277 64.551 27.8735 58.6481C26.793 48.8533 25.7126 40.1841 24.6397 31.5445C24.0976 27.2082 23.5592 22.879 23.0247 18.4188C22.5237 14.2581 25.492 10.4338 29.6378 9.88781C40.9987 8.40011 52.431 7.65601 63.8703 7.65601C75.3059 7.65601 86.7458 8.40011 98.0991 9.88781C102.249 10.4338 105.217 14.2581 104.712 18.4188C104.181 22.8412 103.646 27.1369 103.112 31.4397C102.032 40.1171 100.952 48.816 99.8676 58.6442Z" fill="#53DCFF"/>
<path d="M216.356 2.29902C192.983 -0.766347 169.278 -0.766347 145.906 2.29902C139.171 3.18236 134.068 8.40441 132.895 14.7725C129.868 12.8072 126.307 11.6334 122.5 11.6334C118.691 11.6334 115.13 12.8068 112.104 14.7725C110.929 8.40297 105.827 3.18189 99.0934 2.29902C75.7208 -0.766347 52.0156 -0.766347 28.6435 2.29902C20.3556 3.38669 14.4225 11.0281 15.4207 19.3313C15.959 23.8064 16.5011 28.1427 17.0395 32.4867C18.1123 41.0961 19.1851 49.7319 20.2618 59.4893C21.3461 69.2615 29.5144 76.6637 39.279 76.712H88.4728C88.4804 76.712 88.4876 76.712 88.4952 76.712C98.234 76.6561 106.395 69.2501 107.479 59.4855C108.556 49.6907 109.636 41.0253 110.709 32.3819C110.879 31.02 111.047 29.6247 111.217 28.2604C111.263 28.135 111.344 28.0317 111.378 27.8996C112.683 22.8302 117.255 19.2902 122.5 19.2902C127.737 19.2902 132.309 22.823 133.617 27.8809C133.649 28.0034 133.734 28.092 133.776 28.2087C133.948 29.5902 134.118 31.0037 134.29 32.3819C135.363 41.0248 136.443 49.6907 137.52 59.4888C138.604 69.2611 146.773 76.6632 156.541 76.7116H205.735C205.743 76.7116 205.75 76.7116 205.757 76.7116C215.496 76.6556 223.653 69.2496 224.737 59.485C225.814 49.7314 226.887 41.0956 227.96 32.4862C228.498 28.1422 229.04 23.8054 229.578 19.3308C230.577 11.0286 224.644 3.38717 216.356 2.29902ZM99.8677 58.6442C99.2135 64.5434 94.3126 69.0146 88.4618 69.0558H39.2981C33.4401 69.0295 28.5277 64.551 27.8735 58.6481C26.7931 48.8533 25.7126 40.1841 24.6397 31.5445C24.0976 27.2082 23.5592 22.879 23.0247 18.4188C22.5237 14.2581 25.492 10.4338 29.6378 9.88781C40.9987 8.4001 52.431 7.65601 63.8704 7.65601C75.3059 7.65601 86.7458 8.4001 98.0991 9.88781C102.249 10.4338 105.217 14.2581 104.712 18.4188C104.181 22.8412 103.646 27.1369 103.112 31.4397C102.032 40.1171 100.952 48.816 99.8677 58.6442ZM221.975 18.4193C221.441 22.879 220.902 27.2082 220.36 31.5449C219.287 40.1845 218.207 48.8538 217.126 58.6447C216.472 64.5439 211.571 69.0151 205.724 69.0563H156.561C150.699 69.03 145.786 64.5515 145.132 58.6486C144.048 48.8165 142.968 40.1171 141.888 31.4406C141.353 27.1378 140.819 22.8422 140.287 18.4159C139.783 14.2586 142.751 10.4343 146.9 9.88876C158.258 8.40106 169.694 7.65697 181.129 7.65697C192.565 7.65697 204.005 8.40106 215.362 9.88876C219.508 10.4338 222.476 14.2586 221.975 18.4193Z" fill="#5C546A"/>
<path d="M57.3778 7.76176C49.0301 7.96753 40.6944 8.57429 32.3922 9.57295L91.4171 68.5979C95.8835 67.359 99.3284 63.5088 99.8676 58.6443C100.153 56.0579 100.438 53.5567 100.723 51.1067L57.3778 7.76176Z" fill="#B3F4FF"/>
<path d="M82.3047 42.2589C89.7044 42.2589 95.7031 36.2602 95.7031 28.8605C95.7031 21.4607 89.7044 15.462 82.3047 15.462C74.9049 15.462 68.9062 21.4607 68.9062 28.8605C68.9062 36.2602 74.9049 42.2589 82.3047 42.2589Z" fill="white"/>
<path d="M199.062 42.2589C205.405 42.2589 210.547 37.1172 210.547 30.7745C210.547 24.4319 205.405 19.2902 199.062 19.2902C192.72 19.2902 187.578 24.4319 187.578 30.7745C187.578 37.1172 192.72 42.2589 199.062 42.2589Z" fill="white"/>
<path d="M200.977 42.2589C208.376 42.2589 214.375 36.2602 214.375 28.8605C214.375 21.4607 208.376 15.462 200.977 15.462C193.577 15.462 187.578 21.4607 187.578 28.8605C187.578 36.2602 193.577 42.2589 200.977 42.2589Z" fill="white"/>
</svg>
